<svg xmlns="http://www.w3.org/2000/svg" width="862" height="608.92" viewBox="0 0 862 608.92">
  <defs>
    <style>
      .a {
        fill: none;
        stroke: #fa5458;
        stroke-width: 20px;
      }

      .a, .c {
        stroke-miterlimit: 10;
      }

      .b {
        fill: #ffc87f;
      }

      .c {
        fill: #fa5458;
        stroke: #fff;
        stroke-width: 15px;
      }

      .d {
        fill: #febb6b;
      }

      .e {
        fill: #fff;
      }

      .f {
        fill: #fea065;
        fill-opacity: 0;
      }
    </style>
  </defs>
  <title>Asset 88</title>
  <g>
    <path class="a" d="M140,404.5v-72A47.5,47.5,0,0,1,187.5,285h74.77a47.5,47.5,0,0,0,47.5-47.5h0a47.5,47.5,0,0,0-47.5-47.5H187.5A47.5,47.5,0,0,1,140,142.5h0A47.5,47.5,0,0,1,187.5,95H513"/>
    <path class="b" d="M861.75,491.29c-2.44-18.72-21.88-18.91-36.87-19.67q-32.49-1.62-65-4h0c13.82-1.76,27.66-3.31,41.5-4.89,11.29-1.3,23.68-1,34.65-4,15.74-4.29,25.36-28.93,7.64-37.26-15.91-7.49-38.09-2-54.86-.6-23.54,1.94-47.15,3.81-70.74,4.84h0c8.44-13.68,31.25-30.95,14.87-48.18-14.66-15.44-35.62,7.21-48.55,14.08-20.7,11-43,18.79-64.32,28.39a126.78,126.78,0,0,0-17.93,9h0c-.68,0-1.36-.05-2.06-.05H216.64A61.63,61.63,0,0,0,155,490.57h0a61.64,61.64,0,0,0,61.64,61.64H599.29c1.71.58,3.42,1,4.69,1.51,9,3.35,18.13,6.37,27.27,9.3,41.33,13.25,84.09,23.58,124.22,40.26,8.65,3.61,20.2,9,29,2.84,7.24-5.1,11.2-16.07,7.12-24.26-4.45-8.92-15.93-13.68-24.13-18.22-10.81-6-21.82-11.67-32.53-17.83h0c20.13,2.66,39.46,9.06,59.2,13.59,14.58,3.35,34.72,11.41,41.62-7.86,7.19-20.06-9.17-27.39-25.14-30.31-19.9-3.63-39.7-8.58-59.43-13h0c23.45,1.3,46.85,3.18,70.27,4.78C837.85,514.09,864.9,515.51,861.75,491.29Z"/>
    <rect class="c" x="360.01" y="6" width="269.99" height="338" rx="23.24"/>
    <rect class="d" x="230" y="429.23" width="93.41" height="122.68"/>
    <rect class="e" x="403" y="52.07" width="183.72" height="172.55" rx="24.73"/>
    <circle class="e" cx="422.83" cy="281.39" r="19.54"/>
    <circle class="e" cx="567.47" cy="281.39" r="19.54"/>
    <circle class="e" cx="495.15" cy="281.39" r="19.54"/>
    <rect class="f" y="452.57" width="13" height="76"/>
    <rect class="f" x="102.12" y="562" width="76" height="13"/>
    <rect class="f" x="101.5" y="380.01" width="76" height="13"/>
  </g>
</svg>
