<svg xmlns="http://www.w3.org/2000/svg" width="162.29" height="378.68" viewBox="0 0 162.29 378.68">
  <defs>
    <style>
      .a {
        fill: #FEBB6B;
      }
    </style>
  </defs>
  <title>Asset 53</title>
  <g>
    <path class="a" d="M81.16,0a33.39,33.39,0,1,1-33.4,33.38A33.38,33.38,0,0,1,81.16,0Z"/>
    <path class="a" d="M162.22,205.64c-2.44-25.36-4.63-50.79-12-75.37-3.9-13-9.24-25.34-17.86-36a57.2,57.2,0,0,0-29.43-19.66,10.38,10.38,0,0,0-6.78.21,43.65,43.65,0,0,1-30,0,10.38,10.38,0,0,0-6.78-.21A57.2,57.2,0,0,0,29.93,94.25c-8.62,10.68-14,23-17.86,36-7.36,24.58-9.56,50-12,75.37-.66,6.8,3.47,11.45,9.83,12,7,.64,11.56-3.3,12.38-10.63,1.78-16.06,3-32.19,6-48.08,2.41-12.53,13.45-38.25,21.86-50.71a1,1,0,0,1,1.85.54c.33,14.71,3.25,47,2.6,58.69-1.75,31.11-2.46,54-1.69,85.39.39,15.82,1.1,32.58,2.09,48.38,1.35,21.62,2.58,42.24,4,63.86.55,8.52,3.44,13.78,11.83,13.57,9.78-.24,7.73-7.32,7.53-17.52q-.6-29.73-1.71-59.46c-1-28.18.29-56.31,1.22-84.46.07-1.94-.26-4,3-4,.13,0,.23,0,.35,0a3.31,3.31,0,0,1,.34,0c3.22-.06,2.88,2,3,4,.93,28.15,2.27,56.28,1.22,84.46q-1.09,29.71-1.7,59.46c-.21,10.2-2.26,17.28,7.53,17.52,8.38.21,11.27-5.05,11.82-13.57,1.39-21.62,2.62-42.24,4-63.86,1-15.8,1.7-32.56,2.09-48.38.78-31.36.06-54.28-1.69-85.39-.65-11.65,2.27-44,2.6-58.69a1,1,0,0,1,1.85-.54C120.54,120.7,131.58,146.42,134,159c3.06,15.89,4.24,32,6,48.08.82,7.33,5.39,11.27,12.38,10.63C158.75,217.09,162.88,212.44,162.22,205.64Z"/>
  </g>
</svg>
