<svg xmlns="http://www.w3.org/2000/svg" width="161.69" height="378.68" viewBox="0 0 161.69 378.68">
  <defs>
    <style>
      .a {
        fill: #fea065;
      }
    </style>
  </defs>
  <title>Asset 54</title>
  <g>
    <path class="a" d="M119.15,124.32a1,1,0,0,0-1.82.67c.74,14.39,1.38,28.78,2.32,43.16,2.54,38.77,3.89,77.5.1,116.33-2.34,24-3,48.22-4.45,72.34-.15,2.49-.17,5-.41,7.48-.87,8.78-5.54,13.82-13.17,14.33-8.49.56-15.68-4.39-17.84-12.22a22.8,22.8,0,0,1-.65-6.93c.8-25.65,2.06-51.3,2.23-77,.15-22-1-44-1.5-66,0-2.2-.66-3.27-3.16-3.32-3.21-.06-2.88,2-3,4-.93,28.15-2.27,56.28-1.22,84.46q1.09,29.71,1.71,59.46c.2,10.2-6.75,17.28-16.53,17.52-8.39.21-14.28-5.05-14.83-13.57-1.39-21.62-2.62-43.24-4-64.86-1-15.8-2.24-31.58-3.09-47.38-1.67-31.19.94-62.28,2.69-93.39.64-11.5,1.16-23,1.34-34.58a1,1,0,0,0-1.87-.6C34.75,134.77,30.69,146.52,28.3,159c-3.06,15.89-4.24,32-6,48.08-.82,7.33-5.39,11.27-12.38,10.63-6.36-.57-10.49-5.22-9.83-12,2.44-25.36,4.64-50.79,12-75.37,3.9-13,9.24-25.34,17.86-36A57.2,57.2,0,0,1,59.36,74.59a10.38,10.38,0,0,1,6.78.21,41.94,41.94,0,0,0,29.35,0,11.12,11.12,0,0,1,7.27-.14c18.39,5.39,30.3,18,38.64,34.6,9,18,13.09,37.33,15.81,57,1.75,12.7,3,25.48,4.37,38.23.8,7.23-2.71,12.15-9.17,13.06-7.13,1-12.08-2.8-13-10.49-1.91-16.71-3.07-33.52-6.42-50C130.64,145.27,126.56,134.17,119.15,124.32Z"/>
    <path class="a" d="M80.86,0a33.39,33.39,0,1,1-33.4,33.38A33.38,33.38,0,0,1,80.86,0Z"/>
  </g>
</svg>
