<svg xmlns="http://www.w3.org/2000/svg" width="180.18" height="378.68" viewBox="0 0 180.18 378.68">
  <defs>
    <style>
      .a {
        fill: #fd7d56;
      }
    </style>
  </defs>
  <title>Asset 56</title>
  <g>
    <path class="a" d="M90.1,0A33.39,33.39,0,1,1,56.7,33.38,33.38,33.38,0,0,1,90.1,0Z"/>
    <path class="a" d="M180.13,206.61c-2.77-29.7-5.66-59.42-17-87.43-4.81-11.84-11.25-22.68-20.78-31.43a58.24,58.24,0,0,0-27.68-14.16,11.67,11.67,0,0,0-7.26.64,44.24,44.24,0,0,1-34.54,0,11.7,11.7,0,0,0-7.27-.64A58.33,58.33,0,0,0,37.87,87.75c-9.52,8.75-16,19.59-20.78,31.43-11.38,28-14.27,57.73-17,87.43-.56,6,3.93,10.46,9.92,11,6.67.6,11.42-3,12.2-9.65,1.54-13.07,2.72-26.18,5-39.15,2.68-15.28,7.35-29.76,15.38-42.59a1,1,0,0,1,1.86.71,223.11,223.11,0,0,0-3,29c-1.94,44.46.15,85.91,5.5,130.3,3.17,26.29,5.94,52.63,9.08,78.93,1.24,10.41,10.74,16,20.66,12.48,7.61-2.67,11.18-8.52,10.64-18.23-2.41-43.41-6-86.79-3.11-130.33.19-2.83.25-5.66.42-8.49.21-3.61,2.29-3.25,4.29-3a8.13,8.13,0,0,0,2.31,0c2-.28,4.09-.64,4.3,3,.16,2.83.23,5.66.42,8.49,2.89,43.54-.71,86.92-3.11,130.33-.54,9.71,3,15.56,10.64,18.23,9.91,3.48,19.41-2.07,20.66-12.48,3.14-26.3,5.91-52.64,9.08-78.93,5.35-44.39,7.44-85.84,5.5-130.3a224.86,224.86,0,0,0-3-29,1,1,0,0,1,1.86-.71c8,12.83,12.69,27.31,15.38,42.59,2.28,13,3.46,26.08,5,39.15.78,6.63,5.52,10.25,12.2,9.65C176.2,217.07,180.69,212.61,180.13,206.61Z"/>
  </g>
</svg>
