<svg xmlns="http://www.w3.org/2000/svg" width="197.87" height="378.68" viewBox="0 0 197.87 378.68">
  <defs>
    <style>
      .a {
        fill: #fd5a48;
      }
    </style>
  </defs>
  <title>Asset 58</title>
  <g>
    <path class="a" d="M47.25,134.74a1,1,0,0,0-1.77-.93A94.46,94.46,0,0,0,28,169.53c-3.11,12.67-4.23,25.62-5.81,38.5-.83,6.76-5.43,10.31-12.11,9.74-6.4-.55-10.66-5.3-10-11.93,2.43-24.37,4.8-48.76,11.87-72.36C16,120,21.38,107.13,30.19,96,40.36,83.05,53.48,75.32,69.94,73.47A12.47,12.47,0,0,1,77.56,75c14.13,7.47,28.43,7.48,42.58.09a13.2,13.2,0,0,1,8.1-1.59c19.25,2.26,33.4,12.42,43.69,28.38,11.23,17.43,16.28,37.08,20,57.15,2.81,15.25,4.26,30.68,5.88,46.09.73,7-3.27,12-9.77,12.63-6.88.68-11.47-2.88-12.35-10-1.73-14-2.89-28.17-6.76-41.87-3.21-11.34-8.6-21.47-16-31.42a1,1,0,0,0-1.79.87c2.11,8,4.12,15.37,5.78,22.8,6.81,30.39,6,60.92.74,91.38-6.73,38.73-16.44,76.84-24.72,115.25-2.32,10.72-11.83,16.24-21.41,13-7.23-2.44-10.86-8.83-10.11-17.47,1.9-22.09,5.47-44,7.92-66a350.08,350.08,0,0,0,1.7-47.92c-.1-3.62-1.65-4-5.43-3.72a80.43,80.43,0,0,1-13.88-.07c-4-.34-4.72,1.1-4.84,4.53-.77,21.06.79,42,3.57,62.81,2.21,16.67,4.61,33.33,6,50.1.84,10-3.87,17-12.7,18.42C75.07,379.87,67.19,374.39,65,365c-3.67-15.9-7.17-31.84-10.61-47.79-5.81-26.84-12.55-53.49-15.82-80.85A249.63,249.63,0,0,1,47.17,135C47.19,134.91,47.22,134.83,47.25,134.74Z"/>
    <path class="a" d="M99,0a33.39,33.39,0,1,1-33.4,33.38A33.38,33.38,0,0,1,99,0Z"/>
  </g>
</svg>
