<svg xmlns="http://www.w3.org/2000/svg" width="206.63" height="378.68" viewBox="0 0 206.63 378.68">
  <defs>
    <style>
      .a {
        fill: #fc3839;
      }
    </style>
  </defs>
  <title>Asset 60</title>
  <g>
    <path class="a" d="M177.35,164.64a1,1,0,0,0-2,.33c.3,11.89.73,23.72.44,35.58a366.77,366.77,0,0,1-14.75,95c-6.6,22.52-12.57,45.22-18.81,67.84a25.11,25.11,0,0,1-3.59,8.19,16.5,16.5,0,0,1-18.56,6.28c-6.46-2.13-10.29-7.88-9.94-15.62.5-11.15,1.51-22.27,1.86-33.42.66-21.16-.19-42.32-.75-63.47-.08-3-.75-4-4.44-3.32a17.9,17.9,0,0,1-6.92,0c-4-.83-4.57.56-4.64,3.65-.67,31-2,62,1,92.9.1,1,.12,2,.15,3,.24,9.24-3.8,15.05-11.63,16.74A16.45,16.45,0,0,1,66,367.75C63.79,362,62.37,356,60.75,350c-7.25-26.49-15.2-52.81-21.47-79.53-8.28-35.25-10-71.16-7.23-107.28v0a1,1,0,0,0-2-.44c-2.5,6.29-3.71,12.94-4.73,19.6-1.31,8.56-2.08,17.19-3.18,25.78-.85,6.59-5.57,10.31-12.17,9.78-6-.48-10.53-4.84-10-10.9,2.49-26.83,3.73-53.88,12-79.84a99,99,0,0,1,10.82-23.53C35.16,84.53,53,75.11,75.33,73.48A11.88,11.88,0,0,1,82,75.16c14.35,7.51,28.74,7.45,43-.16a12.35,12.35,0,0,1,7.14-1.46c25.33,2,43.9,14.26,55.54,36.85,9.72,18.85,13.1,39.37,15.49,60.11,1.32,11.42,2.29,22.87,3.4,34.31.71,7.3-2.72,12.15-9.18,13-7.13,1-12.11-2.82-13-10.49-1.48-13.58-2.74-27.18-6.38-40.41C177.82,166.18,177.59,165.41,177.35,164.64Z"/>
    <path class="a" d="M103.33,0a33.39,33.39,0,1,1-33.4,33.38A33.38,33.38,0,0,1,103.33,0Z"/>
  </g>
</svg>
