<svg xmlns="http://www.w3.org/2000/svg" width="33.78" height="36" viewBox="0 0 33.78 36">
  <defs>
    <style>
      .a {
        fill: #fff;
      }
    </style>
  </defs>
  <title>Asset 67</title>
  <g>
    <path class="a" d="M3.38,18a3.46,3.46,0,0,0,2.34-1l3.33,1.66a2.85,2.85,0,0,0,0,.41,3.38,3.38,0,0,0,6.76,0h0a3.47,3.47,0,0,0-.34-1.45L20,13.16a3.32,3.32,0,0,0,1.45.34,3.39,3.39,0,0,0,3.38-3.38,3.44,3.44,0,0,0-.17-1l3.93-2.93a3.38,3.38,0,1,0-.95-4.68A3.42,3.42,0,0,0,27,3.38a3.09,3.09,0,0,0,.17,1L23.27,7.32a3.36,3.36,0,0,0-4.91,4.26L13.84,16.1a3.32,3.32,0,0,0-3.79.61L6.72,15c0-.13,0-.27,0-.4A3.38,3.38,0,1,0,3.37,18Z"/>
    <path class="a" d="M33.57,34.9V12.35a1.05,1.05,0,0,0-1-1.1H28.45a1.08,1.08,0,0,0-1,1.13V34.9a1.05,1.05,0,0,0,1,1.1h4.14A1.05,1.05,0,0,0,33.57,34.9Z"/>
    <path class="a" d="M24.56,34.9V19.11a1.05,1.05,0,0,0-1-1.1H19.42a1.05,1.05,0,0,0-1,1.1V34.9a1.05,1.05,0,0,0,1,1.1h4.14A1.05,1.05,0,0,0,24.56,34.9Z"/>
    <path class="a" d="M6.67,34.9V23.62a1.06,1.06,0,0,0-1-1.1H1.53a1.06,1.06,0,0,0-1,1.1V34.9a1.05,1.05,0,0,0,1,1.1H5.67A1.05,1.05,0,0,0,6.67,34.9Z"/>
    <path class="a" d="M15.61,34.9V28.12a1,1,0,0,0-1-1.1H10.47a1.05,1.05,0,0,0-1,1.1V34.9a1.05,1.05,0,0,0,1,1.1h4.14A1,1,0,0,0,15.61,34.9Z"/>
  </g>
</svg>
