<svg xmlns="http://www.w3.org/2000/svg" width="429" height="429" viewBox="0 0 429 429">
  <defs>
    <style>
      .a {
        fill: #3b4251;
      }
    </style>
  </defs>
  <title>Asset 92</title>
  <g>
    <path class="a" d="M214.5,53a161.49,161.49,0,1,1-114.2,47.3A160.47,160.47,0,0,1,214.5,53m0-53C96,0,0,96,0,214.5S96,429,214.5,429,429,333,429,214.5,333,0,214.5,0Z"/>
    <g>
      <path class="a" d="M214,331.25a27,27,0,0,1-27-27v-105a27,27,0,0,1,54,0v105A27,27,0,0,1,214,331.25Z"/>
      <circle class="a" cx="214.5" cy="123.75" r="27"/>
    </g>
  </g>
</svg>
