<svg xmlns="http://www.w3.org/2000/svg" width="31" height="36" viewBox="0 0 31 36">
  <defs>
    <style>
      .a {
        fill: #3b4251;
      }
    </style>
  </defs>
  <title>Asset 64</title>
  <path class="a" d="M26.55,0H4.45A4.46,4.46,0,0,0,0,4.45v27.1A4.46,4.46,0,0,0,4.45,36h22.1A4.46,4.46,0,0,0,31,31.55V4.45A4.46,4.46,0,0,0,26.55,0ZM3.75,7.72A1.67,1.67,0,0,1,5.41,6.06H11.8a1.67,1.67,0,0,1,1.66,1.66v6.39a1.67,1.67,0,0,1-1.66,1.66H5.41a1.67,1.67,0,0,1-1.66-1.66ZM5.07,22.24a1.16,1.16,0,1,1,0-2.31H21.84a1.16,1.16,0,1,1,0,2.31ZM17,25.5a1.16,1.16,0,0,1-1.16,1.16H5.07a1.16,1.16,0,0,1,0-2.32H15.84A1.16,1.16,0,0,1,17,25.5Zm8.93,5.38H5.07a1.16,1.16,0,0,1,0-2.32H25.93a1.16,1.16,0,0,1,0,2.32Zm1.32-19a.76.76,0,0,1-.76.75h-3.3V16a.76.76,0,0,1-.75.76h-2a.76.76,0,0,1-.75-.76v-3.3H16.41a.76.76,0,0,1-.75-.75v-2a.76.76,0,0,1,.75-.75h3.31V5.87a.76.76,0,0,1,.75-.75h2a.76.76,0,0,1,.75.75V9.18h3.3a.76.76,0,0,1,.76.75Z"/>
</svg>
