<svg xmlns="http://www.w3.org/2000/svg" viewBox="0 0 691.76 130.59"><defs><style>.cls-1{fill:#3a4151;}.cls-2{fill:#fb5253;}</style></defs><title>Asset 4</title><g id="Layer_2" data-name="Layer 2"><g id="Layer_1-2" data-name="Layer 1"><g id="Group_225" data-name="Group 225"><path id="Path_37" data-name="Path 37" class="cls-1" d="M112.21,123a18.65,18.65,0,0,1-8.28,4.4A48.59,48.59,0,0,1,91,129a45.06,45.06,0,0,1-14.3-2.25q-6.75-2.25-11-10.83L45.38,74.59q-3.06-6.33-5.52-12t-5.31-13l-1.23.2q.82,11,.92,22.48t.1,22.47v31.68a56.66,56.66,0,0,1-6.84,1.23,69.2,69.2,0,0,1-9.1.61,47.19,47.19,0,0,1-8-.61,12.25,12.25,0,0,1-5.73-2.46,11.82,11.82,0,0,1-3.47-5A23.32,23.32,0,0,1,0,112V9.81A17.14,17.14,0,0,1,8.8,3.68a38.69,38.69,0,0,1,12.67-2A43.88,43.88,0,0,1,35.88,4q6.84,2.34,10.93,10.72L67.24,56q3.08,6.34,5.52,12t5.31,13l1-.2q-.82-11-1-22.07t-.19-22.07V3.48a56.63,56.63,0,0,1,6.84-1.22,69.18,69.18,0,0,1,9.09-.62q9,0,13.7,3.17T112.21,18Z"/><path id="Path_38" data-name="Path 38" class="cls-1" d="M238.9,77.66A61.49,61.49,0,0,1,235,100.24a45.87,45.87,0,0,1-10.93,16.65,46.6,46.6,0,0,1-16.86,10.22,65.07,65.07,0,0,1-21.87,3.47,62,62,0,0,1-21.87-3.67,48.13,48.13,0,0,1-16.86-10.53A46.91,46.91,0,0,1,135.7,99.73a59.45,59.45,0,0,1-3.88-22.07,59,59,0,0,1,3.88-21.87,46.91,46.91,0,0,1,10.93-16.65,48.13,48.13,0,0,1,16.86-10.53,62,62,0,0,1,21.87-3.68,60.46,60.46,0,0,1,21.87,3.78,49.46,49.46,0,0,1,16.86,10.63A47.09,47.09,0,0,1,235,56,58.52,58.52,0,0,1,238.9,77.66Zm-71.52,0q0,12.47,4.8,19.1a15.57,15.57,0,0,0,13.38,6.64q8.59,0,13.18-6.74t4.6-19q0-12.25-4.7-18.9t-13.28-6.64q-8.58,0-13.28,6.64T167.38,77.66Z"/><path id="Path_39" data-name="Path 39" class="cls-1" d="M354.77,56a47.14,47.14,0,0,0-10.93-16.65A49.46,49.46,0,0,0,327,28.71a60.43,60.43,0,0,0-21.87-3.78,61.89,61.89,0,0,0-21.86,3.68,48.13,48.13,0,0,0-16.86,10.53,46.78,46.78,0,0,0-10.93,16.65,59,59,0,0,0-3.89,21.87,59.46,59.46,0,0,0,3.89,22.07,46.78,46.78,0,0,0,10.93,16.65,48.13,48.13,0,0,0,16.86,10.53,61.89,61.89,0,0,0,21.86,3.68A65.29,65.29,0,0,0,327,127.11a46.51,46.51,0,0,0,16.86-10.22,45.87,45.87,0,0,0,10.93-16.65,61.7,61.7,0,0,0,3.88-22.58A58.56,58.56,0,0,0,354.77,56ZM336.29,78.67A9.3,9.3,0,0,1,327,88H315.35V99.6a9.3,9.3,0,0,1-9.3,9.31h-2.32a9.31,9.31,0,0,1-9.32-9.31h0V88H282.78a9.3,9.3,0,0,1-9.3-9.3h0V76.34a9.3,9.3,0,0,1,9.3-9.3h11.63V55.4a9.32,9.32,0,0,1,9.32-9.3h2.32a9.3,9.3,0,0,1,9.3,9.3h0V67H327a9.3,9.3,0,0,1,9.3,9.3h0Z"/><path id="Path_40" data-name="Path 40" class="cls-2" d="M413.83,87.26V126.5a58,58,0,0,1-7.05,1.22,73.56,73.56,0,0,1-9.5.61,41.79,41.79,0,0,1-8.28-.71,13.71,13.71,0,0,1-5.92-2.56,11.27,11.27,0,0,1-3.58-5.1,25,25,0,0,1-1.23-8.59V15.12a9,9,0,0,1,2.35-6.64,16.81,16.81,0,0,1,6.44-3.78,77,77,0,0,1,16.15-3.58A162.73,162.73,0,0,1,422.82,0Q451,0,465.33,11.85t14.3,32.09q0,12.68-6.54,21.66a47,47,0,0,1-15.53,13.9q7.35,10,14.51,18.8a121.4,121.4,0,0,1,11.24,15.94,19.28,19.28,0,0,1-7.46,10.93A20.82,20.82,0,0,1,463.69,129a26.18,26.18,0,0,1-7.77-1,19,19,0,0,1-5.72-2.86,23.68,23.68,0,0,1-4.5-4.5,60,60,0,0,1-3.88-5.73L424.65,87.26ZM426.7,60.08q7.77,0,12.26-4t4.5-11.75q0-7.77-5-11.75t-15.84-4a47.11,47.11,0,0,0-4.9.2c-1.23.14-2.59.34-4.09.61V60.08Z"/><path id="Path_41" data-name="Path 41" class="cls-2" d="M549.52,130.58a71.72,71.72,0,0,1-22.38-3.37,50.68,50.68,0,0,1-18-10.12,46.79,46.79,0,0,1-12.06-17q-4.39-10.22-4.39-23.91,0-13.48,4.39-23.19a45.76,45.76,0,0,1,11.55-15.94A46.28,46.28,0,0,1,525,27.89a60.57,60.57,0,0,1,18.8-3,56.63,56.63,0,0,1,19.72,3.27,47.16,47.16,0,0,1,15.32,9,40.13,40.13,0,0,1,10,13.69,42,42,0,0,1,3.57,17.37q0,6.94-3.88,10.63t-10.83,4.7l-50.47,7.56a17,17,0,0,0,9.2,10.11,36,36,0,0,0,15.93,3.38,57.26,57.26,0,0,0,15.84-2.15,50.05,50.05,0,0,0,12.16-5,17.25,17.25,0,0,1,5.52,5.72,14.73,14.73,0,0,1,2.25,7.77q0,9.2-8.59,13.69a45.14,45.14,0,0,1-14.71,4.7A103.56,103.56,0,0,1,549.52,130.58ZM543.8,50.27a20.23,20.23,0,0,0-8.48,1.64,17,17,0,0,0-5.83,4.18,17.54,17.54,0,0,0-3.37,5.73,23.6,23.6,0,0,0-1.33,6.43l35-5.72q-.62-4.08-4.5-8.17T543.8,50.27Z"/><path id="Path_42" data-name="Path 42" class="cls-2" d="M665.18,52.31A29,29,0,0,0,655.47,54a22.59,22.59,0,0,0-8,4.8,23.51,23.51,0,0,0-5.41,7.87,27.57,27.57,0,0,0-2.05,11q0,12.67,7.26,19A25.91,25.91,0,0,0,665,103a35.06,35.06,0,0,0,10.63-1.43,65.14,65.14,0,0,0,8-3.06,21.29,21.29,0,0,1,6.13,6.23,15.31,15.31,0,0,1,2,8.07q0,8.39-8,13t-22.07,4.6a67.92,67.92,0,0,1-23.3-3.78A52.56,52.56,0,0,1,620.53,116,47,47,0,0,1,609,99.52a53.75,53.75,0,0,1-4.09-21.25q0-13.48,4.4-23.6a45.74,45.74,0,0,1,12-16.66,50.86,50.86,0,0,1,17.48-9.81,66.75,66.75,0,0,1,20.94-3.27q14.72,0,22.69,5.32t8,13.69a14.82,14.82,0,0,1-1.83,7.25,25.33,25.33,0,0,1-4.3,5.83,66.53,66.53,0,0,0-8.38-3.17A35.36,35.36,0,0,0,665.18,52.31Z"/></g></g></g></svg>