<svg xmlns="http://www.w3.org/2000/svg" width="292.79" height="292.79" viewBox="0 0 292.79 292.79">
  <defs>
    <style>
      .a {
        fill: #fff;
        stroke: #fff;
        stroke-linecap: round;
        stroke-linejoin: round;
        stroke-width: 16px;
      }
    </style>
  </defs>
  <title>Asset 93</title>
  <path class="a" d="M278.66,14.14h0a20.94,20.94,0,0,0-29.63,0L148.14,115a2.47,2.47,0,0,1-3.49,0L43.76,14.14a20.93,20.93,0,0,0-29.62,0h0a20.93,20.93,0,0,0,0,29.62L115,144.65a2.47,2.47,0,0,1,0,3.49L14.14,249a20.94,20.94,0,0,0,0,29.63h0a20.94,20.94,0,0,0,29.62,0L144.65,177.77a2.46,2.46,0,0,1,3.49,0L249,278.66a21,21,0,0,0,29.63,0h0a21,21,0,0,0,0-29.63L177.77,148.14a2.46,2.46,0,0,1,0-3.49L278.66,43.76A20.94,20.94,0,0,0,278.66,14.14Z"/>
</svg>
