<svg xmlns="http://www.w3.org/2000/svg" width="73" height="268.01" viewBox="0 0 73 268.01">
  <defs>
    <style>
      .a {
        fill: #FEBB6B;
      }

      .b {
        fill: #fff;
      }

      .c {
        fill: #fa5458;
      }
    </style>
  </defs>
  <title>Asset 62</title>
  <g>
    <path class="a" d="M58.62,202.47V21.85A21.85,21.85,0,0,0,36.77,0h0A21.84,21.84,0,0,0,14.93,21.85V202.07a36.5,36.5,0,1,0,51,7.86,37,37,0,0,0-7.32-7.46Z"/>
    <circle class="b" cx="36.27" cy="231.74" r="24.43"/>
    <path class="b" d="M40.6,126.12H52.42a2,2,0,0,1,2,2h0a2,2,0,0,1-2,2H40.6a2,2,0,0,1-2-2h0A2,2,0,0,1,40.6,126.12Z"/>
    <path class="b" d="M40.6,139.52H52.42a2,2,0,0,1,2,2h0a2,2,0,0,1-2,2H40.6a2,2,0,0,1-2-2h0A2,2,0,0,1,40.6,139.52Z"/>
    <path class="b" d="M40.6,152.92H52.42a2,2,0,0,1,2,2h0a2,2,0,0,1-2,2H40.6a2,2,0,0,1-2-2h0A2,2,0,0,1,40.6,152.92Z"/>
    <rect class="b" x="26" y="26" width="21" height="194" rx="9.99"/>
    <circle class="c" cx="36.27" cy="231.74" r="14.63"/>
  </g>
</svg>
