<svg xmlns="http://www.w3.org/2000/svg" width="371.83" height="432" viewBox="0 0 371.83 432">
  <defs>
    <style>
      .a, .c, .e {
        fill: #fa5458;
      }

      .b {
        fill: #febb6b;
      }

      .c, .d, .e {
        opacity: 0;
      }

      .e {
        stroke: #fff;
        stroke-linecap: round;
        stroke-linejoin: round;
        stroke-width: 7.5px;
      }
    </style>
  </defs>
  <title>Asset 84</title>
  <g>
    <path class="a" d="M132.58,169a131.53,131.53,0,1,0-2,263.05h.71a131.53,131.53,0,0,0,1.31-263ZM131.2,395.57a94.91,94.91,0,1,1,2.78,0c-.93,0-1.85,0-2.78,0Z"/>
    <path class="b" d="M326.68,404.87h38.75a5.85,5.85,0,0,1,5.86,5.85v15.11a5.85,5.85,0,0,1-5.86,5.85H277.31a5.83,5.83,0,0,1-5.77-6.84,57.66,57.66,0,0,1,11.74-25.72c10.82-12.8,22.84-24.58,34.42-36.73,5.42-5.68,11.21-11,16.45-16.88a30.82,30.82,0,0,0,8.46-22.79c-.5-9.71-6-16.26-15.05-17.71-11-1.77-19.56,2.66-22.77,12.09Q304,320,303.3,323a5.85,5.85,0,0,1-6.25,4.52l-16.88-1.6a5.86,5.86,0,0,1-5.24-6.72c1.45-9.43,4.72-17.88,11.55-24.86,16.67-17,52.75-18.54,70.92-3.11,14.29,12.15,18.36,32.1,10.45,51.27-5.21,12.63-13.93,22.67-23.7,31.91-7.2,6.8-14.5,13.5-21.56,20.42l-.08.08A5.85,5.85,0,0,0,326.68,404.87Z"/>
    <path class="c" d="M250.5,38.05c-42.67-.27-76.29,32-76.58,73.52a74,74,0,0,0,73.34,74.72h.49a74.05,74.05,0,0,0,74.44-73.63C322.36,72.54,289.46,38.31,250.5,38.05Zm-2.25,130.18a56,56,0,1,1,55.67-55.95,56,56,0,0,1-55.67,55.95Z"/>
    <path class="b" d="M147.16,228c.07,5.93-3.85,8.52-12.68,9.16-24.17,1.78-42.77,13-56.06,33.28a68.42,68.42,0,0,0-9.54,26.75c-1.06,6.28-5.33,10.32-10.5,9.73-5.42-.62-8.28-5.12-7.56-11.93,3.81-36,35.17-69,71.06-74.65,4-.64,8.07-1,12.1-1.55C142.86,218.8,147.09,221.68,147.16,228Z"/>
    <g class="d">
      <path class="b" d="M250.61,76.61c-2.08.62-4.35.6-6.45,1.16-15.47,4.11-25.33,13.77-28.92,29.54-.25,1.07-.44,2.15-.67,3.22a6,6,0,0,1-6.48,5.51l-.49-.05c-3.68-.31-5.7-3.1-5.52-7.37.84-19.75,19.67-40,40.39-43.5a33.39,33.39,0,0,1,6.05-.85A6.09,6.09,0,0,1,255,69.81,5.75,5.75,0,0,1,250.61,76.61Z"/>
    </g>
    <path class="c" d="M162.88,66.15a30.74,30.74,0,0,1-24.26,29.5c-.74.13-1.46.33-2.18.5H130a1.93,1.93,0,0,0-.6-.32,27.31,27.31,0,0,1-19.32-11.3,29.71,29.71,0,0,1-5.32-27.75,117.21,117.21,0,0,1,6.63-15.21C117.67,28.3,124,15.07,130.32,1.83l0-.06a3.14,3.14,0,0,1,5.67,0c.32.69.64,1.36,1,2,7.1,14.84,14.15,29.71,21.32,44.52A38.53,38.53,0,0,1,162.88,66.15Z"/>
    <line class="e" x1="128.32" y1="46.6" x2="120.4" y2="63.26"/>
  </g>
</svg>
