<svg xmlns="http://www.w3.org/2000/svg" width="59.46" height="96.15" viewBox="0 0 59.46 96.15">
  <defs>
    <style>
      .a, .b {
        fill: #fa5458;
      }

      .b {
        stroke: #fff;
        stroke-linecap: round;
        stroke-linejoin: round;
        stroke-width: 7.5px;
      }
    </style>
  </defs>
  <title>Asset 81</title>
  <g>
    <path class="a" d="M59.46,66.15A30.74,30.74,0,0,1,35.2,95.65c-.74.13-1.46.33-2.18.5h-6.4a1.93,1.93,0,0,0-.6-.32A27.31,27.31,0,0,1,6.7,84.53,29.71,29.71,0,0,1,1.38,56.78,117.21,117.21,0,0,1,8,41.57C14.25,28.3,20.58,15.07,26.9,1.83l0-.06a3.14,3.14,0,0,1,5.67,0c.32.69.64,1.36,1,2,7.1,14.84,14.15,29.71,21.32,44.52A38.53,38.53,0,0,1,59.46,66.15Z"/>
    <line class="b" x1="24.9" y1="46.6" x2="16.98" y2="63.26"/>
  </g>
</svg>
