<svg xmlns="http://www.w3.org/2000/svg" width="148.28" height="148.24" viewBox="0 0 148.28 148.24">
  <defs>
    <style>
      .a {
        fill: #fa5458;
      }

      .b {
        fill: #febb6b;
      }
    </style>
  </defs>
  <title>Asset 82</title>
  <g>
    <path class="a" d="M76.58,0C33.91-.27.3,32,0,73.52a74,74,0,0,0,73.34,74.71h.5a74.07,74.07,0,0,0,74.44-73.63C148.44,34.49,115.54.26,76.58,0ZM74.33,130.18A56,56,0,1,1,130,74.23a56,56,0,0,1-55.67,56Z"/>
    <path class="b" d="M76.69,38.56c-2.08.62-4.35.6-6.45,1.16C54.77,43.83,44.91,53.49,41.32,69.25c-.25,1.07-.44,2.16-.67,3.23A6,6,0,0,1,34.17,78l-.49-.06c-3.67-.3-5.7-3.09-5.52-7.36.85-19.75,19.68-40,40.39-43.5a33.39,33.39,0,0,1,6-.85,6.09,6.09,0,0,1,6.51,5.53A5.75,5.75,0,0,1,76.69,38.56Z"/>
  </g>
</svg>
