<svg xmlns="http://www.w3.org/2000/svg" width="371.83" height="263.06" viewBox="0 0 371.83 263.06">
  <defs>
    <style>
      .a {
        fill: #fa5458;
      }

      .b {
        fill: #febb6b;
      }
    </style>
  </defs>
  <title>Asset 85</title>
  <g>
    <path class="a" d="M132.58,0a131.53,131.53,0,1,0-2,263.05h.71A131.53,131.53,0,0,0,132.58,0ZM131.2,226.62a94.91,94.91,0,1,1,2.78,0c-.93,0-1.85,0-2.78,0Z"/>
    <path class="b" d="M326.68,235.92h38.75a5.86,5.86,0,0,1,5.86,5.86v15.1a5.86,5.86,0,0,1-5.86,5.86H277.31a5.84,5.84,0,0,1-5.77-6.85,57.63,57.63,0,0,1,11.74-25.71c10.82-12.8,22.84-24.58,34.42-36.73,5.42-5.69,11.21-11,16.45-16.88a30.85,30.85,0,0,0,8.46-22.79c-.5-9.71-6-16.27-15.05-17.72-11-1.76-19.56,2.66-22.77,12.09q-.82,2.92-1.49,5.89a5.84,5.84,0,0,1-6.25,4.52L280.17,157a5.86,5.86,0,0,1-5.24-6.72c1.45-9.44,4.72-17.88,11.55-24.87,16.67-17,52.75-18.54,70.92-3.11,14.29,12.15,18.36,32.1,10.45,51.27-5.21,12.63-13.93,22.67-23.7,31.91-7.2,6.8-14.5,13.5-21.56,20.42l-.08.09A5.85,5.85,0,0,0,326.68,235.92Z"/>
    <path class="b" d="M147.16,59.05c.07,5.93-3.85,8.51-12.68,9.16-24.17,1.77-42.77,13-56.06,33.27a68.48,68.48,0,0,0-9.54,26.75c-1.06,6.29-5.33,10.32-10.5,9.74-5.42-.62-8.28-5.13-7.56-11.94,3.81-36,35.17-69,71.06-74.65,4-.63,8.07-1,12.1-1.55C142.86,49.86,147.09,52.74,147.16,59.05Z"/>
  </g>
</svg>
